<?xml version="1.0" encoding="UTF-8"?>
<svg xmlns="http://www.w3.org/2000/svg" width="1024" height="1024" viewBox="0 0 1024 1024">
<rect x="0" y="0" width="1024" height="1024" rx="230" fill="#15161A"/>
<g transform="translate(140,140) scale(0.726)">
<path d="M0 0 C1.93 0.27 3.87 0.46 5.81 0.66 C9.31 1.34 9.64 1.85 11.98 4.27 C13.29 5.11 14.64 5.9 16 6.65 C16.78 7.08 17.55 7.51 18.35 7.95 C19.16 8.38 19.96 8.82 20.79 9.27 C21.59 9.71 22.38 10.15 23.2 10.6 C31.68 15.53 31.68 15.53 40.98 18.27 C39.99 18.6 39 18.93 37.98 19.27 C39.14 19.93 39.14 19.93 40.31 20.6 C66.12 35.28 66.12 35.28 76.78 41.75 C83.5 45.81 90.3 49.74 97.08 53.7 C106.12 58.99 115.14 64.33 124.08 69.78 C124.82 70.23 125.57 70.68 126.33 71.15 C126.97 71.54 127.61 71.93 128.27 72.33 C130.13 73.43 130.13 73.43 132.98 74.27 C134.65 75.6 136.32 76.94 137.98 78.27 C139.87 79.43 141.78 80.55 143.72 81.64 C144.84 82.27 145.96 82.9 147.11 83.55 C147.7 83.89 148.29 84.22 148.9 84.56 C152.04 86.32 155.17 88.09 158.29 89.87 C158.93 90.24 159.57 90.6 160.23 90.97 C167.84 95.31 175.33 99.84 182.81 104.4 C188.1 107.61 193.4 110.6 198.98 113.27 C200.98 114.27 200.98 114.27 203.02 116 C206.93 119 211.12 121.31 215.42 123.71 C225.75 129.55 235.97 135.55 246.17 141.61 C249.07 143.32 251.97 145.03 254.87 146.74 C281.54 162.42 304.31 176.71 312.98 208.27 C314.5 214.79 314.36 221.44 314.53 228.09 C314.57 229.25 314.57 229.25 314.6 230.43 C315.22 254.05 315.15 277.67 315.15 301.3 C315.15 305.91 315.15 310.53 315.16 315.14 C315.16 327.58 315.17 340.01 315.17 352.44 C315.17 353.49 315.17 353.49 315.17 354.56 C315.17 355.61 315.17 355.61 315.17 356.68 C315.17 368.07 315.18 379.47 315.19 390.86 C315.21 402.65 315.21 414.44 315.21 426.22 C315.21 432.8 315.21 439.39 315.22 445.97 C315.23 452.14 315.23 458.32 315.23 464.49 C315.23 466.74 315.23 468.99 315.23 471.25 C315.31 499.48 311.45 523.22 290.98 544.27 C277.08 557.86 258.17 566.84 241.54 576.59 C240.74 577.07 239.94 577.54 239.11 578.03 C237.4 579.03 235.69 580.02 233.98 581.02 C231.86 582.25 231.86 582.25 229.98 584.27 C228.4 585.19 226.79 586.06 225.17 586.91 C218.65 590.41 212.35 594.23 206.04 598.09 C204.83 598.83 203.6 599.57 202.38 600.32 C199.85 601.86 197.32 603.41 194.79 604.95 C188.69 608.67 182.59 612.38 176.48 616.09 C175.89 616.44 175.31 616.8 174.7 617.17 C163.18 624.17 151.62 631.11 140.04 638.03 C128.24 645.08 116.47 652.18 104.79 659.43 C89.52 668.92 74.13 678.22 58.7 687.44 C52.99 690.85 47.3 694.3 41.63 697.79 C39.77 698.93 37.91 700.08 36.04 701.22 C34.86 701.95 33.68 702.68 32.5 703.41 C11.52 716.46 -4.7 719.85 -29.02 719.27 C-29.02 718.61 -29.02 717.95 -29.02 717.27 C-29.93 717.21 -30.83 717.15 -31.77 717.09 C-42.6 715.48 -52.23 709.02 -61.33 703.34 C-62.56 702.58 -63.79 701.82 -65.02 701.06 C-67.51 699.53 -69.99 698 -72.47 696.46 C-77.57 693.31 -82.7 690.2 -87.83 687.09 C-89.71 685.94 -91.59 684.8 -93.46 683.66 C-94.38 683.1 -95.3 682.54 -96.25 681.96 C-98.09 680.84 -99.94 679.71 -101.79 678.59 C-107.47 675.13 -113.14 671.67 -118.82 668.22 C-121.75 666.44 -124.68 664.65 -127.61 662.87 C-130.18 661.3 -132.75 659.74 -135.32 658.17 C-136.57 657.41 -137.82 656.65 -139.07 655.89 C-140.81 654.82 -142.56 653.76 -144.31 652.7 C-145.32 652.08 -146.32 651.47 -147.36 650.84 C-150.55 648.96 -153.5 647.45 -157.02 646.27 C-156.69 645.94 -156.36 645.61 -156.02 645.27 C-156.95 644.73 -157.89 644.18 -158.86 643.61 C-175.15 634.07 -191.37 624.41 -207.42 614.48 C-212.61 611.28 -217.85 608.16 -223.08 605.02 C-224.16 604.37 -225.25 603.72 -226.36 603.05 C-231.41 600.03 -236.46 597.01 -241.52 593.99 C-243.21 592.98 -244.89 591.97 -246.58 590.96 C-247.79 590.24 -247.79 590.24 -249.02 589.51 C-252.93 587.16 -256.82 584.78 -260.67 582.34 C-261.4 581.88 -262.14 581.41 -262.9 580.94 C-264.27 580.06 -265.63 579.19 -267 578.31 C-270.01 576.39 -272.57 575.1 -276.02 574.27 C-276.44 573.84 -276.86 573.4 -277.29 572.95 C-279.46 570.85 -281.78 569.51 -284.39 567.98 C-286 567.03 -286 567.03 -287.63 566.07 C-289.86 564.77 -292.08 563.46 -294.31 562.16 C-317.3 548.58 -334.45 532.75 -341.33 506.3 C-342.32 501.95 -343.14 497.93 -343.16 493.46 C-343.17 492.52 -343.17 491.57 -343.18 490.59 C-343.18 489.56 -343.18 488.53 -343.18 487.47 C-343.19 486.37 -343.19 485.26 -343.2 484.13 C-343.22 480.43 -343.23 476.73 -343.24 473.02 C-343.25 470.37 -343.26 467.72 -343.27 465.07 C-343.3 458.61 -343.33 452.15 -343.35 445.68 C-343.36 440.43 -343.38 435.17 -343.4 429.91 C-343.41 429.16 -343.41 428.41 -343.41 427.64 C-343.42 426.12 -343.42 424.59 -343.43 423.07 C-343.49 408.79 -343.54 394.51 -343.58 380.23 C-343.62 368.01 -343.67 355.79 -343.72 343.57 C-343.78 329.36 -343.83 315.15 -343.88 300.94 C-343.89 299.42 -343.89 297.9 -343.9 296.38 C-343.9 295.63 -343.9 294.89 -343.91 294.11 C-343.93 288.88 -343.95 283.64 -343.97 278.4 C-344 271.99 -344.02 265.59 -344.04 259.18 C-344.05 255.92 -344.06 252.66 -344.07 249.4 C-344.14 235.65 -344.01 221.99 -343.02 208.27 C-342.36 208.27 -341.7 208.27 -341.02 208.27 C-340.93 207.12 -340.84 205.96 -340.74 204.77 C-340.16 200.12 -338.55 196.46 -336.39 192.34 C-336.04 191.64 -335.68 190.95 -335.31 190.23 C-331.3 182.6 -326.35 176.14 -320.02 170.27 C-319.48 169.77 -318.95 169.26 -318.4 168.74 C-313.1 163.88 -307.45 160.35 -301.21 156.84 C-299.06 155.61 -296.92 154.38 -294.78 153.15 C-293.12 152.2 -293.12 152.2 -291.42 151.23 C-285.75 147.97 -280.14 144.62 -274.52 141.27 C-267.71 137.23 -260.9 133.19 -254.04 129.22 C-252.38 128.25 -252.38 128.25 -250.69 127.27 C-248.58 126.05 -246.47 124.83 -244.35 123.61 C-243.42 123.07 -242.48 122.53 -241.51 121.97 C-240.69 121.5 -239.87 121.02 -239.02 120.53 C-236.9 119.3 -236.9 119.3 -235.02 117.27 C-233.7 116.58 -232.37 115.9 -231.02 115.27 C-231.02 114.61 -231.02 113.95 -231.02 113.27 C-230.3 113.16 -229.57 113.05 -228.83 112.94 C-225.83 112.23 -223.69 111.18 -221.03 109.65 C-220.08 109.11 -219.14 108.57 -218.16 108.02 C-217.17 107.44 -216.17 106.87 -215.14 106.27 C-214.11 105.69 -213.09 105.1 -212.03 104.49 C-205.08 100.5 -198.18 96.44 -191.34 92.28 C-187.03 89.68 -182.68 87.18 -178.31 84.68 C-175.93 83.34 -175.93 83.34 -174.02 81.27 C-172.58 80.51 -171.13 79.8 -169.66 79.1 C-163.48 76.07 -157.61 72.57 -151.71 69.02 C-149.32 67.6 -146.93 66.18 -144.55 64.76 C-143.63 64.21 -143.63 64.21 -142.69 63.65 C-136.33 59.86 -129.95 56.11 -123.56 52.36 C-121.77 51.31 -119.98 50.26 -118.19 49.21 C-110.17 44.51 -102.1 39.87 -94.02 35.27 C-94.35 34.61 -94.68 33.95 -95.02 33.27 C-94.17 33.19 -93.32 33.11 -92.44 33.03 C-88.48 32.16 -85.59 30.42 -82.27 28.21 C-76.25 24.27 -76.25 24.27 -74.02 24.27 C-73.69 23.61 -73.36 22.95 -73.02 22.27 C-69.2 19.85 -65.22 17.72 -61.27 15.53 C-58.86 14.19 -56.48 12.82 -54.1 11.44 C-35.8 0.99 -20.98 -3.05 0 0 Z " fill="#05241A" transform="translate(527.017578125,158.7255859375)"/>
<path d="M0 0 C4.04 1.86 6.8 4.54 9.88 7.69 C10.41 8.23 10.95 8.77 11.5 9.33 C14.65 12.54 17.63 15.84 20.49 19.31 C22.1 21.11 23.81 22.62 25.65 24.18 C30.1 28.03 34.25 32.13 38.4 36.3 C39.2 37.1 40 37.9 40.82 38.72 C42.54 40.45 44.26 42.17 45.97 43.9 C48.7 46.63 51.42 49.36 54.15 52.1 C60.42 58.39 66.7 64.68 72.97 70.98 C79.19 77.21 85.4 83.45 91.62 89.68 C94.3 92.36 96.97 95.05 99.64 97.73 C101.3 99.39 102.95 101.04 104.6 102.7 C105.7 103.81 105.7 103.81 106.83 104.94 C110.83 108.94 114.94 112.75 119.23 116.45 C121.45 118.4 123.55 120.44 125.64 122.54 C126.45 123.36 127.27 124.17 128.1 125.02 C128.96 125.88 129.81 126.74 130.69 127.62 C132.04 128.98 132.04 128.98 133.42 130.37 C136.77 133.73 140.11 137.09 143.45 140.46 C146.73 143.77 150.02 147.07 153.31 150.38 C154.16 151.24 155.02 152.1 155.9 152.98 C160.19 157.3 164.56 161.43 169.18 165.4 C171.97 167.85 174.58 170.47 177.19 173.12 C177.73 173.68 178.28 174.23 178.84 174.79 C181.14 177.11 183.43 179.43 185.73 181.75 C187.42 183.46 189.12 185.17 190.81 186.88 C191.31 187.39 191.82 187.9 192.33 188.42 C195.06 191.16 197.85 193.76 200.78 196.28 C205.65 200.5 210.16 205.05 214.69 209.62 C216.04 210.98 216.04 210.98 217.42 212.37 C220.77 215.73 224.11 219.09 227.45 222.46 C230.73 225.77 234.02 229.07 237.31 232.38 C238.16 233.24 239.02 234.1 239.9 234.98 C244.17 239.28 248.52 243.39 253.12 247.35 C256.24 250.09 259.15 253.04 262.06 256 C262.7 256.64 263.33 257.28 263.99 257.94 C266.67 260.63 269.34 263.34 272.02 266.04 C281.45 275.63 281.45 275.63 291.43 284.64 C293.81 286.7 295.95 288.97 298.12 291.25 C302.3 295.46 306.61 299.31 311.25 303 C311.82 303.46 312.38 303.91 312.97 304.38 C318.8 308.92 324.39 311.82 332 311 C341.51 308.08 349.35 300.99 356.11 293.93 C357.96 292.04 359.87 290.33 361.88 288.62 C365.9 285.16 369.61 281.43 373.31 277.62 C375.37 275.62 377.43 273.76 379.6 271.9 C384.29 267.81 388.66 263.45 393.03 259.03 C393.87 258.19 394.7 257.35 395.56 256.49 C398.21 253.83 400.86 251.16 403.5 248.5 C406.99 244.99 410.48 241.48 413.97 237.97 C414.76 237.17 415.54 236.38 416.35 235.56 C419.75 232.15 423.15 228.82 426.81 225.69 C431.93 221.28 436.66 216.46 441.42 211.66 C443.13 209.93 444.85 208.21 446.57 206.48 C450.21 202.83 453.86 199.16 457.5 195.5 C461.73 191.25 465.95 187 470.19 182.76 C471.87 181.07 473.54 179.38 475.22 177.69 C476.26 176.65 477.31 175.6 478.35 174.55 C479.25 173.64 480.15 172.74 481.08 171.81 C483.24 169.68 485.49 167.69 487.79 165.71 C492.39 161.72 496.67 157.46 500.95 153.15 C501.81 152.29 502.66 151.43 503.55 150.55 C505.87 148.22 508.2 145.88 510.52 143.55 C512.97 141.09 515.41 138.64 517.86 136.19 C524.08 129.96 530.29 123.73 536.5 117.5 C543.21 110.77 549.92 104.04 556.63 97.32 C559.06 94.88 561.49 92.45 563.92 90.01 C566.62 87.29 569.34 84.57 572.05 81.85 C572.84 81.06 573.63 80.26 574.45 79.44 C578.54 75.35 582.72 71.45 587.11 67.67 C590.18 64.96 593.04 62.06 595.92 59.15 C596.56 58.5 597.2 57.86 597.86 57.19 C599.23 55.81 600.61 54.42 601.98 53.04 C604.15 50.84 606.32 48.66 608.5 46.47 C614.68 40.26 620.85 34.04 627.01 27.81 C630.8 23.99 634.59 20.18 638.38 16.37 C639.83 14.92 641.27 13.47 642.7 12.01 C644.71 9.98 646.72 7.96 648.73 5.95 C649.62 5.04 649.62 5.04 650.53 4.11 C654.66 0 654.66 0 658 0 C658.05 25.17 658.08 50.33 658.1 75.5 C658.11 87.18 658.13 98.87 658.15 110.56 C658.17 120.75 658.18 130.94 658.19 141.13 C658.19 146.52 658.2 151.91 658.21 157.3 C658.23 162.39 658.23 167.47 658.23 172.56 C658.23 174.41 658.23 176.27 658.24 178.12 C658.35 205.13 653.44 228 634 248 C620.1 261.58 601.19 270.56 584.56 280.32 C583.76 280.79 582.96 281.26 582.13 281.75 C580.42 282.75 578.71 283.75 577 284.74 C574.88 285.97 574.88 285.97 573 288 C571.41 288.91 569.8 289.78 568.18 290.64 C561.67 294.14 555.37 297.95 549.06 301.81 C547.84 302.56 546.62 303.3 545.4 304.04 C542.87 305.59 540.34 307.13 537.81 308.68 C531.71 312.4 525.61 316.11 519.5 319.81 C518.91 320.17 518.32 320.53 517.72 320.89 C506.19 327.89 494.64 334.84 483.06 341.76 C471.26 348.81 459.48 355.9 447.8 363.16 C432.53 372.65 417.15 381.94 401.71 391.16 C396.01 394.58 390.32 398.03 384.65 401.52 C382.79 402.66 380.93 403.8 379.06 404.95 C377.88 405.68 376.7 406.41 375.52 407.14 C354.53 420.19 338.32 423.58 314 423 C314 422.34 314 421.68 314 421 C313.09 420.94 312.19 420.88 311.25 420.81 C300.42 419.21 290.79 412.74 281.69 407.06 C280.46 406.3 279.23 405.55 278 404.79 C275.51 403.26 273.02 401.73 270.54 400.19 C265.44 397.03 260.31 393.92 255.19 390.81 C253.31 389.67 251.43 388.53 249.55 387.38 C248.64 386.82 247.72 386.26 246.77 385.69 C244.92 384.56 243.08 383.44 241.23 382.31 C235.55 378.85 229.87 375.4 224.2 371.94 C221.27 370.16 218.34 368.38 215.41 366.59 C212.84 365.03 210.27 363.46 207.7 361.9 C206.45 361.14 205.2 360.38 203.95 359.62 C202.2 358.55 200.46 357.49 198.71 356.42 C197.7 355.81 196.7 355.2 195.66 354.57 C192.47 352.69 189.51 351.17 186 350 C186.33 349.67 186.66 349.34 187 349 C186.06 348.45 185.13 347.9 184.16 347.34 C167.87 337.8 151.65 328.14 135.6 318.2 C130.4 315.01 125.17 311.89 119.94 308.75 C118.85 308.1 117.77 307.45 116.65 306.78 C111.6 303.76 106.55 300.73 101.5 297.71 C99.81 296.71 98.12 295.7 96.44 294.69 C95.63 294.21 94.83 293.73 94 293.23 C90.09 290.89 86.2 288.51 82.35 286.07 C81.61 285.61 80.88 285.14 80.12 284.66 C78.75 283.79 77.38 282.91 76.02 282.03 C73.01 280.11 70.45 278.82 67 278 C66.58 277.56 66.16 277.13 65.73 276.68 C63.56 274.57 61.24 273.23 58.62 271.71 C57.02 270.76 57.02 270.76 55.39 269.79 C53.16 268.49 50.93 267.19 48.71 265.89 C25.72 252.31 8.57 236.47 1.69 210.02 C1.46 209.03 1.24 208.03 1 207 C0.82 206.28 0.65 205.57 0.46 204.83 C-0.14 201.12 -0.13 197.47 -0.12 193.73 C-0.12 192.9 -0.12 192.07 -0.12 191.22 C-0.12 188.44 -0.12 185.67 -0.11 182.89 C-0.11 180.9 -0.11 178.91 -0.11 176.92 C-0.11 171.51 -0.11 166.11 -0.1 160.7 C-0.1 155.06 -0.09 149.41 -0.09 143.76 C-0.09 133.06 -0.08 122.37 -0.07 111.67 C-0.06 99.5 -0.06 87.32 -0.05 75.14 C-0.04 50.1 -0.02 25.05 0 0 Z " fill="#D8503C" transform="translate(184,455)"/>
<path d="M0 0 C1.93 0.27 3.87 0.46 5.81 0.66 C9.31 1.34 9.64 1.85 11.98 4.27 C13.29 5.11 14.64 5.9 16 6.65 C16.78 7.08 17.55 7.51 18.35 7.95 C19.16 8.38 19.96 8.82 20.79 9.27 C21.59 9.71 22.38 10.15 23.2 10.6 C31.68 15.53 31.68 15.53 40.98 18.27 C39.99 18.6 39 18.93 37.98 19.27 C39.14 19.93 39.14 19.93 40.31 20.6 C66.12 35.28 66.12 35.28 76.78 41.75 C83.5 45.81 90.3 49.74 97.08 53.7 C106.12 58.99 115.14 64.33 124.08 69.78 C124.82 70.23 125.57 70.68 126.33 71.15 C126.97 71.54 127.61 71.93 128.27 72.33 C130.13 73.43 130.13 73.43 132.98 74.27 C134.65 75.6 136.32 76.94 137.98 78.27 C139.87 79.43 141.78 80.55 143.72 81.64 C144.84 82.27 145.96 82.9 147.11 83.55 C147.7 83.89 148.29 84.22 148.9 84.56 C152.04 86.32 155.17 88.09 158.29 89.87 C158.93 90.24 159.57 90.6 160.23 90.97 C167.84 95.31 175.33 99.84 182.81 104.4 C188.1 107.61 193.4 110.6 198.98 113.27 C200.98 114.27 200.98 114.27 203.02 116 C206.93 119 211.12 121.31 215.42 123.71 C225.75 129.55 235.97 135.55 246.17 141.61 C249.07 143.32 251.97 145.03 254.87 146.74 C281.54 162.42 304.31 176.71 312.98 208.27 C313.91 212.2 314.17 215.95 314.3 219.99 C314.32 220.65 314.34 221.32 314.36 222 C314.43 224.22 314.49 226.43 314.54 228.65 C314.57 229.8 314.57 229.8 314.6 230.97 C314.73 236.11 314.84 241.24 314.93 246.38 C314.97 248.37 315 250.36 315.04 252.35 C315.17 258.78 315.27 265.22 315.32 271.66 C315.35 273.78 315.38 275.89 315.42 278.01 C315.47 281 315.49 283.98 315.51 286.97 C315.53 287.86 315.55 288.76 315.57 289.69 C315.57 290.51 315.57 291.34 315.57 292.19 C315.57 292.91 315.58 293.63 315.59 294.37 C314.66 297.27 312.6 297.77 309.98 299.27 C307.58 301.38 305.36 303.66 303.12 305.93 C302.11 306.94 302.11 306.94 301.08 307.97 C298.87 310.18 296.67 312.41 294.46 314.63 C292.92 316.18 291.38 317.73 289.83 319.28 C285.77 323.36 281.71 327.44 277.66 331.52 C271.18 338.04 264.69 344.56 258.2 351.07 C255.94 353.34 253.69 355.61 251.43 357.89 C250.03 359.29 248.64 360.7 247.24 362.1 C246.62 362.73 246 363.35 245.36 363.99 C242.36 367 239.31 369.89 236.09 372.67 C231.52 376.62 227.28 380.85 223.03 385.13 C222.17 385.99 221.32 386.84 220.44 387.73 C218.11 390.06 215.79 392.39 213.46 394.73 C211.02 397.18 208.57 399.63 206.12 402.09 C199.9 408.31 193.69 414.54 187.48 420.77 C180.77 427.5 174.07 434.23 167.35 440.96 C164.92 443.39 162.49 445.83 160.07 448.27 C157.36 450.99 154.65 453.7 151.93 456.42 C151.14 457.22 150.35 458.01 149.54 458.83 C145.42 462.95 141.2 466.89 136.79 470.69 C134.26 472.91 131.88 475.27 129.52 477.66 C129.03 478.15 128.54 478.64 128.04 479.14 C127.01 480.18 125.97 481.23 124.94 482.27 C123.3 483.93 121.66 485.58 120.02 487.23 C115.36 491.91 110.71 496.6 106.06 501.3 C103.2 504.18 100.34 507.06 97.47 509.94 C96.38 511.03 95.29 512.13 94.21 513.23 C92.7 514.76 91.19 516.28 89.67 517.8 C88.81 518.66 87.95 519.53 87.07 520.42 C84.98 522.27 84.98 522.27 82.98 522.27 C82.65 523.26 82.32 524.25 81.98 525.27 C80.44 526.8 80.44 526.8 78.46 528.43 C73.85 532.33 69.63 536.53 65.4 540.83 C63.79 542.45 62.19 544.07 60.58 545.69 C58.08 548.22 55.57 550.75 53.07 553.28 C50.64 555.74 48.21 558.19 45.77 560.65 C45.02 561.41 44.27 562.18 43.49 562.97 C42.8 563.66 42.1 564.36 41.39 565.08 C40.78 565.7 40.17 566.32 39.54 566.95 C37.98 568.27 37.98 568.27 35.98 568.27 C35.65 569.26 35.32 570.25 34.98 571.27 C33.49 572.75 33.49 572.75 31.54 574.34 C28.19 577.17 25.07 580.14 21.98 583.27 C18.41 586.88 14.77 590.33 10.91 593.62 C9.59 594.76 8.28 595.91 6.99 597.08 C0.55 602.91 -5.36 607.6 -14.14 608.65 C-29.11 607.2 -41.54 592.08 -51.45 581.85 C-54.03 579.21 -56.64 576.71 -59.46 574.33 C-67.07 567.76 -73.97 560.38 -81.04 553.24 C-83.01 551.25 -84.98 549.26 -86.96 547.27 C-87.84 546.38 -87.84 546.38 -88.74 545.46 C-91.69 542.5 -94.68 539.66 -97.85 536.94 C-102.71 532.74 -107.19 528.21 -111.71 523.65 C-112.61 522.74 -113.51 521.84 -114.44 520.9 C-117.78 517.55 -121.12 514.18 -124.46 510.82 C-127.75 507.51 -131.04 504.2 -134.33 500.9 C-135.18 500.04 -136.03 499.18 -136.91 498.29 C-141.21 493.98 -145.58 489.84 -150.19 485.87 C-152.99 483.42 -155.6 480.8 -158.21 478.15 C-158.75 477.6 -159.3 477.05 -159.86 476.48 C-162.16 474.17 -164.45 471.85 -166.75 469.53 C-168.44 467.82 -170.13 466.11 -171.83 464.4 C-172.33 463.89 -172.83 463.38 -173.35 462.85 C-176.09 460.1 -178.9 457.48 -181.84 454.95 C-186.44 450.97 -190.7 446.7 -194.97 442.38 C-195.79 441.56 -196.62 440.73 -197.46 439.88 C-200.07 437.26 -202.67 434.64 -205.27 432.02 C-208.71 428.56 -212.15 425.09 -215.6 421.63 C-216.38 420.84 -217.17 420.05 -217.98 419.23 C-219.08 418.12 -219.08 418.12 -220.2 416.99 C-220.84 416.34 -221.49 415.7 -222.15 415.03 C-224.01 413.21 -224.01 413.21 -226.26 411.67 C-226.84 411.21 -227.42 410.75 -228.02 410.27 C-228.02 409.61 -228.02 408.95 -228.02 408.27 C-228.6 408.02 -229.18 407.76 -229.78 407.49 C-232.21 406.17 -233.8 404.73 -235.75 402.78 C-236.47 402.05 -237.2 401.33 -237.95 400.58 C-238.73 399.79 -239.52 398.99 -240.33 398.17 C-241.59 396.92 -241.59 396.92 -242.87 395.63 C-245.16 393.34 -247.44 391.04 -249.73 388.73 C-252.13 386.32 -254.53 383.91 -256.94 381.5 C-261.49 376.93 -266.05 372.36 -270.6 367.78 C-278.74 359.6 -286.88 351.43 -295.02 343.26 C-297.41 340.86 -299.8 338.47 -302.18 336.07 C-304.85 333.38 -307.52 330.7 -310.19 328.02 C-311.35 326.85 -311.35 326.85 -312.55 325.64 C-316.69 321.49 -320.92 317.52 -325.38 313.71 C-327.29 312.03 -328.96 310.24 -330.58 308.27 C-336.08 301.42 -336.08 301.42 -343.02 296.27 C-343.17 287.46 -343.32 278.64 -343.46 269.83 C-343.53 265.73 -343.59 261.64 -343.67 257.54 C-343.74 253.57 -343.8 249.6 -343.86 245.63 C-343.88 244.14 -343.91 242.64 -343.94 241.14 C-344.14 230.14 -343.75 219.25 -343.02 208.27 C-342.36 208.27 -341.7 208.27 -341.02 208.27 C-340.93 207.12 -340.84 205.96 -340.74 204.77 C-340.16 200.12 -338.55 196.46 -336.39 192.34 C-336.04 191.64 -335.68 190.95 -335.31 190.23 C-331.3 182.6 -326.35 176.14 -320.02 170.27 C-319.48 169.77 -318.95 169.26 -318.4 168.74 C-313.1 163.88 -307.45 160.35 -301.21 156.84 C-299.06 155.61 -296.92 154.38 -294.78 153.15 C-293.12 152.2 -293.12 152.2 -291.42 151.23 C-285.75 147.97 -280.14 144.62 -274.52 141.27 C-267.71 137.23 -260.9 133.19 -254.04 129.22 C-252.38 128.25 -252.38 128.25 -250.69 127.27 C-248.58 126.05 -246.47 124.83 -244.35 123.61 C-243.42 123.07 -242.48 122.53 -241.51 121.97 C-240.69 121.5 -239.87 121.02 -239.02 120.53 C-236.9 119.3 -236.9 119.3 -235.02 117.27 C-233.7 116.58 -232.37 115.9 -231.02 115.27 C-231.02 114.61 -231.02 113.95 -231.02 113.27 C-230.3 113.16 -229.57 113.05 -228.83 112.94 C-225.83 112.23 -223.69 111.18 -221.03 109.65 C-220.08 109.11 -219.14 108.57 -218.16 108.02 C-217.17 107.44 -216.17 106.87 -215.14 106.27 C-214.11 105.69 -213.09 105.1 -212.03 104.49 C-205.08 100.5 -198.18 96.44 -191.34 92.28 C-187.03 89.68 -182.68 87.18 -178.31 84.68 C-175.93 83.34 -175.93 83.34 -174.02 81.27 C-172.58 80.51 -171.13 79.8 -169.66 79.1 C-163.48 76.07 -157.61 72.57 -151.71 69.02 C-149.32 67.6 -146.93 66.18 -144.55 64.76 C-143.63 64.21 -143.63 64.21 -142.69 63.65 C-136.33 59.86 -129.95 56.11 -123.56 52.36 C-121.77 51.31 -119.98 50.26 -118.19 49.21 C-110.17 44.51 -102.1 39.87 -94.02 35.27 C-94.35 34.61 -94.68 33.95 -95.02 33.27 C-94.17 33.19 -93.32 33.11 -92.44 33.03 C-88.48 32.16 -85.59 30.42 -82.27 28.21 C-76.25 24.27 -76.25 24.27 -74.02 24.27 C-73.69 23.61 -73.36 22.95 -73.02 22.27 C-69.2 19.85 -65.22 17.72 -61.27 15.53 C-58.86 14.19 -56.48 12.82 -54.1 11.44 C-35.8 0.99 -20.98 -3.05 0 0 Z M-49.53 102.43 C-54.37 105.52 -59.31 108.43 -64.27 111.34 C-72.69 116.28 -81.05 121.32 -89.39 126.4 C-99.77 132.72 -110.19 138.96 -120.64 145.15 C-129.46 150.37 -138.26 155.61 -146.99 160.99 C-156.06 166.56 -165.25 171.96 -174.41 177.38 C-181.58 181.62 -188.71 185.91 -195.8 190.29 C-199.18 192.38 -202.58 194.44 -205.99 196.49 C-207.17 197.21 -208.35 197.92 -209.53 198.63 C-211.31 199.7 -213.08 200.78 -214.86 201.85 C-242.38 217.96 -242.38 217.96 -258.08 244.88 C-259.69 252.41 -259.35 260.2 -259.35 267.86 C-259.36 269.58 -259.37 271.29 -259.37 273 C-259.39 276.58 -259.39 280.15 -259.39 283.73 C-259.39 288.29 -259.42 292.85 -259.45 297.41 C-259.47 300.94 -259.48 304.47 -259.47 308.01 C-259.48 309.69 -259.49 311.37 -259.5 313.05 C-259.59 323.49 -259.4 332.48 -252.85 341.13 C-251.71 342.25 -251.71 342.25 -250.53 343.38 C-249.25 344.64 -249.25 344.64 -247.95 345.92 C-247.06 346.76 -246.18 347.6 -245.27 348.46 C-244.4 349.31 -243.53 350.16 -242.63 351.04 C-238.86 354.71 -235.03 358.3 -231.03 361.73 C-224.95 366.98 -219.43 372.82 -213.79 378.54 C-212.91 379.43 -212.02 380.32 -211.11 381.24 C-210.32 382.04 -209.54 382.84 -208.73 383.66 C-206.6 385.71 -204.45 387.65 -202.21 389.58 C-197.9 393.33 -193.87 397.31 -189.86 401.37 C-189.11 402.12 -188.37 402.87 -187.6 403.64 C-184.44 406.82 -181.29 410 -178.14 413.18 C-175.82 415.51 -173.5 417.85 -171.17 420.18 C-170.47 420.89 -169.78 421.6 -169.06 422.32 C-165.12 426.28 -161.07 430.03 -156.84 433.67 C-154.36 435.85 -152.03 438.17 -149.71 440.52 C-149.02 441.22 -149.02 441.22 -148.32 441.92 C-146.4 443.86 -144.49 445.79 -142.58 447.73 C-137.55 452.83 -132.49 457.82 -127.04 462.48 C-121.93 467.02 -117.23 472.02 -112.44 476.89 C-111.6 477.74 -110.76 478.59 -109.89 479.46 C-109.15 480.22 -108.4 480.98 -107.63 481.75 C-105.52 483.79 -103.38 485.71 -101.17 487.62 C-97.18 491.09 -93.44 494.74 -89.74 498.49 C-89.08 499.15 -88.42 499.82 -87.74 500.5 C-84.97 503.29 -82.2 506.09 -79.43 508.89 C-77.39 510.94 -75.34 513 -73.3 515.06 C-72.69 515.68 -72.08 516.3 -71.45 516.93 C-67.14 521.26 -62.65 525.31 -58.02 529.27 C-57.25 529.94 -56.48 530.6 -55.69 531.28 C-40.12 543.91 -22.61 547.17 -3.02 545.27 C9.34 543.16 20.45 537.49 29.95 529.42 C30.79 528.71 30.79 528.71 31.65 527.98 C38.38 522.18 44.58 515.86 50.79 509.52 C53.11 507.17 55.43 504.82 57.75 502.48 C58.31 501.92 58.86 501.36 59.43 500.78 C62.79 497.41 66.25 494.23 69.88 491.15 C74.97 486.6 79.69 481.63 84.48 476.77 C86.66 474.57 88.83 472.38 91.01 470.18 C91.49 469.69 91.97 469.2 92.47 468.7 C95.17 465.98 97.94 463.41 100.85 460.91 C105.14 457.19 109.14 453.22 113.14 449.18 C114.26 448.06 114.26 448.06 115.4 446.91 C117.76 444.53 120.12 442.15 122.48 439.77 C125.59 436.64 128.71 433.5 131.83 430.37 C132.87 429.31 132.87 429.31 133.94 428.22 C137.87 424.28 141.9 420.56 146.1 416.93 C148.91 414.45 151.54 411.82 154.17 409.15 C154.72 408.6 155.26 408.05 155.83 407.48 C157.55 405.75 159.27 404.01 160.98 402.27 C173.67 389.43 173.67 389.43 179.91 384.13 C184.82 379.75 189.36 374.95 193.98 370.27 C205.96 358.14 205.96 358.14 212.2 352.81 C215.14 350.27 217.95 347.61 220.73 344.9 C221.28 344.39 221.83 343.87 222.4 343.34 C229.76 336.14 231.4 328.88 231.53 318.78 C231.54 316.29 231.53 313.8 231.51 311.32 C231.52 309.57 231.52 307.81 231.53 306.06 C231.53 302.4 231.52 298.74 231.5 295.07 C231.48 290.41 231.49 285.75 231.52 281.09 C231.53 277.47 231.53 273.85 231.52 270.24 C231.52 268.52 231.52 266.8 231.53 265.08 C231.6 247.19 227.26 233.09 214.74 219.75 C209.8 215.31 204.2 212.08 198.48 208.74 C195.73 207.13 193 205.48 190.27 203.84 C186.02 201.28 181.78 198.73 177.52 196.18 C173.33 193.68 169.13 191.16 164.94 188.65 C151.79 180.74 138.61 172.88 125.41 165.06 C115.96 159.46 106.53 153.81 97.12 148.15 C88.29 142.85 79.46 137.58 70.6 132.33 C60 126.05 49.42 119.75 38.86 113.4 C36.85 112.2 34.85 111 32.85 109.8 C28.85 107.4 24.87 104.99 20.9 102.56 C18.95 101.38 17 100.2 15.04 99.02 C14.18 98.49 13.31 97.95 12.41 97.4 C-9.22 84.4 -29.56 89.59 -49.53 102.43 Z " fill="#0E9466" transform="translate(527.017578125,158.7255859375)"/>
<path d="M0 0 C0.89 -0.03 1.78 -0.06 2.69 -0.09 C16.28 -0.22 26.83 6.12 38.06 13 C39.47 13.85 40.88 14.7 42.29 15.55 C45.87 17.71 49.44 19.88 53.01 22.06 C56.18 23.99 59.36 25.92 62.53 27.85 C66.03 29.98 69.54 32.11 73.04 34.24 C81.37 39.32 89.77 44.26 98.21 49.16 C106.23 53.81 114.18 58.56 122.12 63.34 C132.27 69.45 142.45 75.49 152.64 81.53 C167.32 90.23 181.96 99.03 196.54 107.92 C197.76 108.66 198.98 109.41 200.2 110.15 C201.09 110.69 201.09 110.69 202 111.24 C205.49 113.37 209 115.46 212.52 117.54 C229.23 127.42 240.5 138.01 246.6 156.97 C247.26 160.29 247.24 163.58 247.26 166.95 C247.26 167.72 247.27 168.48 247.28 169.27 C247.3 171.8 247.32 174.32 247.34 176.85 C247.34 177.72 247.35 178.58 247.35 179.48 C247.38 184.07 247.4 188.66 247.41 193.24 C247.43 197.03 247.45 200.81 247.49 204.6 C247.54 209.18 247.57 213.76 247.58 218.34 C247.58 220.08 247.6 221.82 247.62 223.56 C247.77 234.7 247.04 242.94 239.97 251.99 C239.29 252.65 238.62 253.3 237.92 253.98 C236.78 255.1 236.78 255.1 235.62 256.25 C234.83 256.99 234.05 257.73 233.25 258.5 C232.1 259.63 232.1 259.63 230.92 260.79 C227.45 264.17 223.92 267.46 220.24 270.61 C214.55 275.53 209.34 280.96 204.06 286.31 C192.49 298.03 192.49 298.03 188.12 301.75 C182.09 306.9 176.63 312.68 171.06 318.31 C168.79 320.61 166.52 322.9 164.25 325.19 C163.5 325.95 163.5 325.95 162.73 326.73 C159.97 329.51 157.15 332.14 154.19 334.69 C149.89 338.41 145.9 342.37 141.91 346.41 C141.16 347.16 140.41 347.91 139.64 348.68 C137.28 351.06 134.92 353.43 132.56 355.81 C129.45 358.95 126.34 362.09 123.22 365.22 C122.17 366.28 122.17 366.28 121.1 367.36 C117.18 371.31 113.14 375.04 108.93 378.67 C106.2 381.07 103.64 383.63 101.09 386.22 C100.57 386.75 100.04 387.28 99.5 387.82 C97.85 389.48 96.21 391.15 94.56 392.81 C82.46 405.06 82.46 405.06 78.05 408.82 C74.6 411.76 71.41 414.92 68.23 418.15 C67.71 418.68 67.19 419.2 66.66 419.75 C64.5 421.94 62.35 424.13 60.21 426.34 C49.43 437.41 38.68 446.6 24.06 452.31 C23.24 452.65 22.42 452.99 21.57 453.34 C7.82 458.09 -9.62 456.68 -22.94 451.31 C-23.96 450.91 -24.98 450.51 -26.03 450.1 C-33.71 446.69 -39.32 441.75 -45.24 435.93 C-47.23 434.03 -49.29 432.22 -51.36 430.4 C-58.55 423.96 -65.27 417.05 -72.06 410.19 C-82.27 399.77 -82.27 399.77 -93.05 389.97 C-98.13 385.5 -102.77 380.52 -107.52 375.7 C-111.21 371.97 -114.89 368.29 -118.88 364.88 C-124.7 359.88 -129.99 354.32 -135.37 348.86 C-136.79 347.42 -138.21 345.99 -139.62 344.56 C-140.45 343.72 -141.28 342.88 -142.14 342.02 C-144.3 339.93 -146.48 337.95 -148.76 335.99 C-153.07 332.25 -157.09 328.27 -161.09 324.22 C-161.84 323.47 -162.59 322.72 -163.36 321.94 C-166.51 318.77 -169.67 315.59 -172.82 312.41 C-175.14 310.07 -177.46 307.74 -179.78 305.41 C-180.83 304.35 -180.83 304.35 -181.9 303.26 C-185.84 299.3 -189.89 295.55 -194.13 291.9 C-196.53 289.79 -198.79 287.56 -201.03 285.28 C-201.92 284.39 -202.8 283.49 -203.71 282.57 C-205.53 280.73 -207.35 278.89 -209.16 277.05 C-213.67 272.5 -218.21 268.1 -223.07 263.93 C-226.21 261.22 -229.21 258.38 -232.19 255.5 C-232.79 254.95 -233.38 254.4 -234 253.83 C-240.95 247.05 -243.23 239.83 -243.44 230.19 C-243.47 227.01 -243.46 223.84 -243.43 220.66 C-243.43 218.95 -243.44 217.24 -243.44 215.54 C-243.44 211.97 -243.43 208.4 -243.4 204.84 C-243.38 200.29 -243.38 195.75 -243.39 191.21 C-243.4 187.68 -243.39 184.16 -243.38 180.64 C-243.37 178.96 -243.37 177.29 -243.38 175.62 C-243.4 158.95 -240.78 144.92 -228.88 132.44 C-221.56 125.2 -212.69 120.2 -203.87 115.03 C-199.88 112.69 -195.93 110.31 -191.97 107.92 C-188.83 106.03 -185.68 104.15 -182.54 102.27 C-176.19 98.47 -169.86 94.63 -163.54 90.78 C-153.83 84.87 -144.09 79.02 -134.3 73.26 C-126.87 68.88 -119.49 64.42 -112.12 59.94 C-100.03 52.58 -87.9 45.27 -75.76 38 C-72.37 35.97 -68.99 33.95 -65.61 31.92 C-64.04 30.98 -62.47 30.04 -60.91 29.1 C-56.39 26.39 -51.88 23.67 -47.37 20.95 C-44.69 19.33 -42 17.71 -39.32 16.09 C-38 15.29 -36.68 14.49 -35.37 13.7 C-13.01 0.14 -13.01 0.14 0 0 Z M-22.11 90.21 C-23.79 91.23 -25.51 92.18 -27.23 93.13 C-35.73 97.83 -43.98 102.97 -52.26 108.03 C-60.76 113.22 -69.33 118.29 -77.94 123.31 C-93.68 132.51 -109.32 141.9 -124.94 151.31 C-125.9 151.89 -126.86 152.47 -127.86 153.07 C-132.9 156.12 -137.94 159.19 -142.94 162.31 C-143.82 162.86 -143.82 162.86 -144.72 163.43 C-155.75 170.36 -165.23 178.16 -169.51 191.04 C-170.1 194.17 -170.09 197.19 -170.11 200.37 C-170.12 201.08 -170.13 201.78 -170.13 202.5 C-170.15 204.82 -170.17 207.14 -170.18 209.46 C-170.18 210.26 -170.18 211.05 -170.19 211.87 C-170.21 216.07 -170.22 220.27 -170.23 224.47 C-170.24 228.81 -170.28 233.14 -170.32 237.47 C-170.34 240.81 -170.35 244.15 -170.36 247.49 C-170.36 249.09 -170.37 250.68 -170.39 252.28 C-170.42 254.52 -170.41 256.76 -170.41 258.99 C-170.41 260.27 -170.42 261.54 -170.43 262.85 C-169.61 268.63 -166.14 272.36 -162.11 276.37 C-161.39 277.09 -160.67 277.8 -159.93 278.54 C-159.19 279.27 -158.45 280 -157.69 280.75 C-156.96 281.48 -156.24 282.2 -155.49 282.95 C-152.11 286.3 -148.69 289.57 -145.07 292.66 C-139.26 297.67 -133.98 303.24 -128.62 308.72 C-127.23 310.14 -125.84 311.55 -124.45 312.96 C-123.63 313.8 -122.81 314.64 -121.97 315.5 C-120.14 317.53 -120.14 317.53 -117.94 317.31 C-117.94 317.97 -117.94 318.63 -117.94 319.31 C-116.55 320.71 -116.55 320.71 -114.69 322.19 C-110.91 325.39 -107.41 328.79 -103.94 332.31 C-100.76 335.54 -97.59 338.7 -94.12 341.62 C-89.33 345.7 -84.97 350.23 -80.57 354.72 C-77.57 357.76 -74.55 360.68 -71.3 363.45 C-67.57 366.66 -64.12 370.08 -60.67 373.59 C-59.83 374.44 -59.83 374.44 -58.96 375.32 C-56.62 377.7 -54.27 380.09 -51.94 382.48 C-36.66 398.14 -21.04 410.87 1.75 411.69 C21.52 411.34 36.65 401.87 50.19 388.25 C50.93 387.48 51.68 386.7 52.45 385.9 C54.5 383.87 56.56 382 58.74 380.13 C63.77 375.77 68.4 371.05 73.06 366.31 C82.55 356.68 82.55 356.68 86.98 352.9 C92.43 348.22 97.4 343.05 102.44 337.94 C104.4 335.95 106.37 333.96 108.34 331.98 C109.2 331.1 110.06 330.23 110.94 329.33 C113.06 327.31 113.06 327.31 115.06 326.31 C115.06 325.65 115.06 324.99 115.06 324.31 C115.62 324.08 116.18 323.85 116.75 323.61 C119.67 321.97 121.64 319.94 123.98 317.55 C124.45 317.08 124.91 316.61 125.39 316.13 C126.87 314.63 128.34 313.13 129.81 311.62 C131.74 309.66 133.67 307.7 135.61 305.74 C136.08 305.26 136.55 304.78 137.04 304.29 C140.29 301.03 143.66 297.97 147.16 294.98 C150.69 291.88 153.95 288.52 157.25 285.19 C157.94 284.5 158.62 283.81 159.33 283.1 C160.65 281.76 161.97 280.43 163.29 279.09 C164.77 277.6 166.28 276.14 167.8 274.7 C172.53 269.71 174.56 266.08 174.63 259.15 C174.64 258.46 174.65 257.77 174.66 257.06 C174.7 254.79 174.7 252.52 174.7 250.25 C174.71 248.66 174.72 247.06 174.73 245.47 C174.75 242.12 174.76 238.78 174.75 235.44 C174.74 231.19 174.79 226.95 174.84 222.71 C174.88 219.41 174.89 216.11 174.88 212.82 C174.89 211.25 174.9 209.69 174.92 208.13 C175.14 193.65 171.21 182.48 160.91 171.75 C154.81 166.53 147.92 162.45 141.06 158.31 C140.09 157.71 139.13 157.11 138.13 156.5 C134.21 154.1 130.24 151.86 126.19 149.69 C118.12 145.33 110.32 140.51 102.47 135.77 C99.17 133.77 95.87 131.79 92.56 129.81 C88.59 127.43 84.61 125.04 80.64 122.65 C73.19 118.17 65.72 113.7 58.24 109.27 C57.65 108.92 57.06 108.57 56.46 108.21 C53.57 106.51 50.68 104.8 47.79 103.1 C41.11 99.14 34.47 95.12 27.88 91.02 C10.99 80.78 -5.2 79.97 -22.11 90.21 Z " fill="#084C37" transform="translate(510.9375,248.6875)"/>
<path d="M0 0 C0.99 0.5 0.99 0.5 2 1 C1.97 2.31 1.94 3.62 1.91 4.97 C1.65 17.38 1.45 29.78 1.33 42.18 C1.26 48.56 1.17 54.93 1.02 61.3 C0.88 67.46 0.8 73.62 0.77 79.78 C0.74 82.13 0.7 84.47 0.63 86.81 C-0.14 101.59 -0.14 101.59 6.55 114.15 C9.23 116.67 12.02 118.84 15 121 C16.33 122.14 17.66 123.3 18.97 124.47 C19.58 124.99 20.2 125.52 20.83 126.05 C26.92 131.52 32.55 137.51 38.3 143.32 C40.06 145.1 41.83 146.88 43.59 148.66 C44.12 149.19 44.64 149.72 45.18 150.27 C47.89 152.99 50.65 155.58 53.58 158.08 C59.1 162.86 64.19 168.08 69.34 173.27 C71.22 175.16 73.11 177.05 75 178.95 C79.68 183.64 84.35 188.34 89.03 193.04 C92.99 197.02 96.96 201 100.93 204.98 C102.77 206.83 104.61 208.69 106.46 210.54 C111.57 215.68 116.67 220.71 122.19 225.42 C125.6 228.4 128.75 231.65 131.94 234.88 C132.66 235.6 133.39 236.33 134.13 237.08 C137.2 240.16 140.25 243.25 143.31 246.33 C145.56 248.6 147.81 250.86 150.06 253.12 C150.74 253.81 151.42 254.5 152.11 255.2 C155.95 259.06 159.9 262.69 164.02 266.24 C167.4 269.24 170.55 272.45 173.72 275.66 C174.77 276.72 174.77 276.72 175.85 277.8 C178.81 280.78 181.78 283.77 184.74 286.76 C186.92 288.95 189.1 291.15 191.28 293.34 C191.94 294.01 192.59 294.67 193.27 295.36 C197.08 299.18 201.01 302.79 205.09 306.32 C207.99 308.87 210.7 311.59 213.41 314.34 C214.26 315.2 214.26 315.2 215.13 316.08 C217.52 318.49 219.91 320.91 222.3 323.32 C230.93 332.05 230.93 332.05 240.04 340.26 C245.36 344.98 250.23 350.2 255.22 355.26 C259.73 359.81 264.28 364.21 269.15 368.37 C272.25 371.1 275.11 374.05 278 377 C282.84 381.88 287.72 386.59 293 391 C293.92 391.81 294.85 392.62 295.8 393.46 C308.83 404.82 319.42 407.93 336.48 407.2 C348.44 406.25 356.65 397.76 365 390 C366.31 388.8 367.63 387.59 368.94 386.39 C374.84 380.95 380.63 375.44 386.25 369.72 C388.7 367.31 391.3 365.11 393.91 362.88 C397.14 359.98 400.12 356.85 403.12 353.72 C405 352 405 352 407 352 C407 351.34 407 350.68 407 350 C408.36 348.66 408.36 348.66 410.31 347.06 C414.83 343.23 418.96 339.08 423.09 334.84 C425.12 332.81 427.22 330.94 429.41 329.09 C433.48 325.57 437.27 321.79 441.05 317.97 C441.69 317.34 442.32 316.7 442.97 316.04 C445.62 313.37 448.26 310.69 450.9 308.01 C452.84 306.03 454.79 304.06 456.74 302.1 C457.64 301.18 457.64 301.18 458.56 300.24 C460 298.79 461.5 297.39 463 296 C463.66 296 464.32 296 465 296 C465 295.34 465 294.68 465 294 C466.24 292.78 466.24 292.78 468.09 291.28 C472.21 287.78 476.04 284.05 479.84 280.22 C480.46 279.6 481.08 278.98 481.71 278.34 C483.65 276.39 485.57 274.45 487.5 272.5 C501.9 257.94 501.9 257.94 508.01 252.77 C512.72 248.58 517.07 243.99 521.5 239.5 C523.49 237.49 525.48 235.48 527.47 233.47 C528.34 232.59 529.21 231.7 530.11 230.79 C532.26 228.67 534.5 226.68 536.8 224.71 C541.35 220.76 545.57 216.52 549.8 212.22 C551.46 210.56 553.11 208.9 554.76 207.23 C557.33 204.63 559.91 202.03 562.48 199.42 C564.98 196.89 567.49 194.37 569.99 191.85 C570.77 191.06 571.54 190.27 572.34 189.46 C573.41 188.38 573.41 188.38 574.5 187.29 C575.13 186.65 575.76 186.01 576.41 185.36 C578 184 578 184 580 184 C580.24 183.43 580.49 182.86 580.74 182.27 C582.22 179.61 583.95 177.82 586.12 175.69 C586.85 174.97 587.57 174.25 588.32 173.51 C590.32 171.64 592.34 169.86 594.42 168.09 C599.61 163.55 604.44 158.67 609.29 153.78 C610.98 152.08 612.67 150.38 614.37 148.69 C617.95 145.08 621.54 141.48 625.12 137.88 C629.29 133.69 633.46 129.5 637.63 125.32 C639.29 123.65 640.94 121.98 642.6 120.32 C643.62 119.29 644.65 118.26 645.67 117.23 C646.56 116.34 647.45 115.45 648.36 114.53 C651.14 111.87 654.02 109.43 657 107 C657.09 119.52 657.16 132.04 657.21 144.56 C657.23 150.37 657.26 156.18 657.3 162 C657.35 167.62 657.37 173.24 657.38 178.86 C657.39 181 657.4 183.13 657.42 185.26 C657.66 209.39 652.32 228.78 635.38 246.6 C621.27 260.95 601.76 270.22 584.56 280.32 C583.76 280.79 582.96 281.26 582.13 281.75 C580.42 282.75 578.71 283.75 577 284.74 C574.88 285.97 574.88 285.97 573 288 C571.41 288.91 569.8 289.78 568.18 290.64 C561.67 294.14 555.37 297.95 549.06 301.81 C547.84 302.56 546.62 303.3 545.4 304.04 C542.87 305.59 540.34 307.13 537.81 308.68 C531.71 312.4 525.61 316.11 519.5 319.81 C518.91 320.17 518.32 320.53 517.72 320.89 C506.19 327.89 494.64 334.84 483.06 341.76 C471.26 348.81 459.48 355.9 447.8 363.16 C432.53 372.65 417.15 381.94 401.71 391.16 C396.01 394.58 390.32 398.03 384.65 401.52 C382.79 402.66 380.93 403.8 379.06 404.95 C377.88 405.68 376.7 406.41 375.52 407.14 C354.53 420.19 338.32 423.58 314 423 C314 422.34 314 421.68 314 421 C313.09 420.94 312.19 420.88 311.25 420.81 C300.42 419.21 290.79 412.74 281.69 407.06 C280.46 406.3 279.23 405.55 278 404.79 C275.51 403.26 273.02 401.73 270.54 400.19 C265.44 397.03 260.31 393.92 255.19 390.81 C253.31 389.67 251.43 388.53 249.55 387.38 C248.64 386.82 247.72 386.26 246.77 385.69 C244.92 384.56 243.08 383.44 241.23 382.31 C235.55 378.85 229.87 375.4 224.2 371.94 C221.27 370.16 218.34 368.38 215.41 366.59 C212.84 365.03 210.27 363.46 207.7 361.9 C206.45 361.14 205.2 360.38 203.95 359.62 C202.2 358.55 200.46 357.49 198.71 356.42 C197.7 355.81 196.7 355.2 195.66 354.57 C192.47 352.69 189.51 351.17 186 350 C186.33 349.67 186.66 349.34 187 349 C186.06 348.45 185.13 347.9 184.16 347.34 C167.87 337.8 151.65 328.14 135.6 318.2 C130.4 315.01 125.17 311.89 119.94 308.75 C118.85 308.1 117.77 307.45 116.65 306.78 C111.6 303.76 106.55 300.73 101.5 297.71 C99.81 296.71 98.12 295.7 96.44 294.69 C95.63 294.21 94.83 293.73 94 293.23 C90.09 290.89 86.2 288.51 82.35 286.07 C81.61 285.61 80.88 285.14 80.12 284.66 C78.75 283.79 77.38 282.91 76.02 282.03 C73.01 280.11 70.45 278.82 67 278 C66.58 277.56 66.16 277.13 65.73 276.68 C63.56 274.57 61.24 273.23 58.62 271.71 C57.02 270.76 57.02 270.76 55.39 269.79 C53.16 268.49 50.93 267.19 48.71 265.89 C25.72 252.31 8.57 236.47 1.69 210.02 C1.46 209.03 1.24 208.03 1 207 C0.82 206.28 0.65 205.57 0.46 204.83 C-0.14 201.12 -0.13 197.47 -0.12 193.73 C-0.12 192.9 -0.12 192.07 -0.12 191.22 C-0.12 188.44 -0.12 185.67 -0.11 182.89 C-0.11 180.9 -0.11 178.91 -0.11 176.92 C-0.11 171.51 -0.11 166.11 -0.1 160.7 C-0.1 155.06 -0.09 149.41 -0.09 143.76 C-0.09 133.06 -0.08 122.37 -0.07 111.67 C-0.06 99.5 -0.06 87.32 -0.05 75.14 C-0.04 50.1 -0.02 25.05 0 0 Z " fill="#D8503C" transform="translate(184,455)"/>
<path d="M0 0 C2.79 1.64 5.52 3.34 8.25 5.07 C10.29 6.35 12.34 7.62 14.38 8.89 C15.4 9.53 16.41 10.16 17.45 10.82 C21.62 13.41 25.84 15.93 30.06 18.45 C31.67 19.42 33.28 20.39 34.89 21.35 C38.49 23.51 42.1 25.66 45.71 27.79 C48.24 29.3 50.77 30.81 53.3 32.33 C54.54 33.06 55.78 33.8 57.02 34.53 C69.17 41.68 79.2 49.49 82.94 63.82 C83.51 67.58 83.53 71.3 83.54 75.08 C83.54 75.9 83.55 76.71 83.55 77.55 C83.55 79.26 83.56 80.98 83.56 82.7 C83.56 85.3 83.58 87.9 83.6 90.49 C83.67 110.87 83.67 110.87 79.8 117.2 C79.15 117.86 78.49 118.52 77.81 119.2 C77.01 120.01 76.22 120.82 75.4 121.66 C74.94 122.12 74.47 122.57 73.99 123.04 C72.06 124.94 70.17 126.87 68.28 128.8 C62.08 135.08 55.89 141.29 49.2 147.05 C46.68 149.23 44.25 151.5 41.81 153.76 C35.39 159.68 28.81 165.41 22.17 171.09 C20.48 172.54 18.81 174 17.14 175.47 C4.46 186.4 -6.75 191.58 -23.65 190.78 C-38 189.71 -47.51 182.15 -57.63 172.64 C-59.33 171.11 -61.04 169.59 -62.75 168.07 C-66.54 164.67 -70.14 161.14 -73.71 157.52 C-76.17 155.1 -78.75 152.86 -81.36 150.62 C-88.12 144.72 -94.72 138.65 -100.99 132.24 C-102.78 130.49 -104.66 128.88 -106.57 127.26 C-119.98 115.68 -119.98 115.68 -120.91 108.45 C-120.93 107.27 -120.93 107.27 -120.95 106.06 C-120.97 105.16 -120.99 104.25 -121.01 103.32 C-121.02 102.35 -121.03 101.38 -121.04 100.39 C-121.05 99.38 -121.06 98.37 -121.07 97.33 C-121.09 95.19 -121.1 93.05 -121.11 90.91 C-121.13 87.67 -121.19 84.44 -121.25 81.2 C-121.4 67.71 -120.8 58.05 -111.27 47.74 C-107.58 44.4 -103.56 41.64 -99.38 38.95 C-98.6 38.44 -97.82 37.93 -97.01 37.4 C-94.56 35.8 -92.1 34.22 -89.63 32.64 C-88.85 32.14 -88.08 31.64 -87.28 31.13 C-79.9 26.41 -72.47 21.76 -65.01 17.17 C-64.07 16.59 -63.13 16.01 -62.16 15.41 C-60.36 14.3 -58.55 13.19 -56.74 12.09 C-53.06 9.82 -49.42 7.54 -45.92 5 C-31.61 -5.39 -16.29 -8.45 0 0 Z " fill="#05241A" transform="translate(531.62890625,422.3642578125)"/>
<path d="M0 0 C2.8 1.28 4.84 2.6 7.01 4.77 C7.86 5.62 7.86 5.62 8.72 6.49 C9.33 7.1 9.94 7.72 10.57 8.36 C11.22 9.01 11.87 9.66 12.54 10.33 C14.69 12.49 16.84 14.66 18.98 16.82 C20.48 18.33 21.98 19.83 23.48 21.34 C27.44 25.31 31.38 29.28 35.33 33.25 C41.63 39.59 47.94 45.93 54.25 52.27 C56.44 54.47 58.64 56.68 60.83 58.89 C62.19 60.26 63.55 61.63 64.91 62.99 C65.51 63.6 66.11 64.21 66.73 64.84 C70.42 68.53 74.24 72.03 78.21 75.43 C80.59 77.52 82.8 79.73 85 82 C84.67 82.66 84.34 83.32 84 84 C82.83 83.05 81.66 82.09 80.5 81.12 C79.85 80.59 79.2 80.06 78.53 79.51 C78.03 79.01 77.52 78.51 77 78 C77 77.34 77 76.68 77 76 C76.41 75.73 75.81 75.46 75.2 75.19 C72.98 73.99 71.53 72.78 69.75 70.99 C69.13 70.38 68.51 69.76 67.87 69.13 C67.2 68.46 66.53 67.78 65.84 67.09 C65.13 66.38 64.42 65.67 63.69 64.93 C61.33 62.58 58.99 60.23 56.64 57.87 C55.01 56.24 53.38 54.61 51.75 52.98 C48.33 49.56 44.92 46.14 41.51 42.72 C37.13 38.32 32.74 33.92 28.35 29.53 C24.98 26.17 21.62 22.8 18.25 19.43 C16.64 17.8 15.02 16.18 13.4 14.56 C11.14 12.31 8.89 10.05 6.64 7.78 C5.96 7.11 5.29 6.43 4.59 5.73 C0 1.11 0 1.11 0 0 Z " fill="#0E9466" transform="translate(222,491)"/>
<path d="M0 0 C3.7 1.55 6.05 3.8 8.86 6.63 C9.33 7.1 9.8 7.57 10.28 8.05 C11.82 9.6 13.36 11.15 14.89 12.7 C15.96 13.77 17.03 14.84 18.1 15.92 C20.91 18.74 23.72 21.56 26.53 24.39 C29.39 27.27 32.26 30.15 35.13 33.04 C40.76 38.68 46.38 44.34 52 50 C49 50 49 50 47.15 48.52 C46.47 47.82 45.78 47.12 45.07 46.41 C44.28 45.62 43.5 44.84 42.69 44.03 C41.85 43.17 41 42.31 40.13 41.43 C39.26 40.55 38.39 39.67 37.49 38.77 C35.17 36.44 32.85 34.09 30.54 31.75 C28.2 29.38 25.86 27.02 23.51 24.66 C20.07 21.19 16.63 17.72 13.19 14.24 C12.46 13.5 11.73 12.76 10.97 11.99 C9.78 10.79 8.59 9.58 7.4 8.38 C5.57 6.52 3.8 4.86 1.69 3.31 C1.13 2.88 0.57 2.45 0 2 C0 1.34 0 0.68 0 0 Z " fill="#D8503C" transform="translate(236,613)"/>
<path d="M0 0 C4.29 0 8.58 0 13 0 C13 0.33 13 0.66 13 1 C8.71 1 4.42 1 0 1 C0 0.67 0 0.34 0 0 Z " fill="#D8503C" transform="translate(507,879)"/>
<path d="M0 0 C1.32 0 2.64 0 4 0 C4 0.66 4 1.32 4 2 C2.68 1.34 1.36 0.68 0 0 Z " fill="#0E9466" transform="translate(740,280)"/>
<path d="M0 0 C4 1 4 1 4 1 Z " fill="#D8503C" transform="translate(473,869)"/>
<path d="M0 0 C0.99 0.33 1.98 0.66 3 1 C2.01 1 1.02 1 0 1 C0 0.67 0 0.34 0 0 Z " fill="#D8503C" transform="translate(203,701)"/>
<path d="M0 0 C0.99 0.33 1.98 0.66 3 1 C2.01 1.33 1.02 1.66 0 2 C0 1.34 0 0.68 0 0 Z " fill="#0E9466" transform="translate(268,288)"/>
<path d="M0 0 C0.99 0.33 1.98 0.66 3 1 C2.01 1.33 1.02 1.66 0 2 C0 1.34 0 0.68 0 0 Z " fill="#0E9466" transform="translate(390,216)"/>
<path d="M0 0 C3 1 3 1 3 1 Z " fill="#D8503C" transform="translate(524,878)"/>
<path d="M0 0 C3 1 3 1 3 1 Z " fill="#D8503C" transform="translate(232,723)"/>
<path d="" fill="#D8503C" transform="translate(0,0)"/>
<path d="M0 0 C3 1 3 1 3 1 Z " fill="#0E9466" transform="translate(304,264)"/>
<path d="M0 0 C3 1 3 1 3 1 Z " fill="#0E9466" transform="translate(336,248)"/>
<path d="M0 0 C0.33 0.66 0.66 1.32 1 2 C0.34 1.67 -0.32 1.34 -1 1 C-0.67 0.67 -0.34 0.34 0 0 Z " fill="#0E9466" transform="translate(648,224)"/>
<path d="M0 0 C3 1 3 1 3 1 Z " fill="#0E9466" transform="translate(488,160)"/>
<path d="M0 0 C2 1 2 1 2 1 Z " fill="#D8503C" transform="translate(499,878)"/>
<path d="M0 0 C2 1 2 1 2 1 Z " fill="#D8503C" transform="translate(495,877)"/>
<path d="M0 0 C2 1 2 1 2 1 Z " fill="#D8503C" transform="translate(563,860)"/>
<path d="M0 0 C2 1 2 1 2 1 Z " fill="#D8503C" transform="translate(393,819)"/>
<path d="" fill="#D8503C" transform="translate(0,0)"/>
<path d="" fill="#D8503C" transform="translate(0,0)"/>
<path d="M0 0 C2 1 2 1 2 1 Z " fill="#D8503C" transform="translate(307,767)"/>
<path d="" fill="#D8503C" transform="translate(0,0)"/>
<path d="" fill="#D8503C" transform="translate(0,0)"/>
<path d="" fill="#D8503C" transform="translate(0,0)"/>
<path d="" fill="#D8503C" transform="translate(0,0)"/>
<path d="" fill="#0E9466" transform="translate(0,0)"/>
<path d="M0 0 C2 1 2 1 2 1 Z " fill="#0E9466" transform="translate(796,313)"/>
<path d="M0 0 C2 1 2 1 2 1 Z " fill="#0E9466" transform="translate(227,313)"/>
<path d="M0 0 C2 1 2 1 2 1 Z " fill="#0E9466" transform="translate(794,312)"/>
<path d="M0 0 C2 1 2 1 2 1 Z " fill="#0E9466" transform="translate(242,304)"/>
<path d="M0 0 C2 1 2 1 2 1 Z " fill="#0E9466" transform="translate(256,296)"/>
<path d="" fill="#0E9466" transform="translate(0,0)"/>
<path d="M0 0 C2 1 2 1 2 1 Z " fill="#0E9466" transform="translate(699,256)"/>
<path d="M0 0 C2 1 2 1 2 1 Z " fill="#0E9466" transform="translate(676,242)"/>
<path d="M0 0 C2 1 2 1 2 1 Z " fill="#0E9466" transform="translate(348,240)"/>
<path d="M0 0 C2 1 2 1 2 1 Z " fill="#0E9466" transform="translate(645,224)"/>
<path d="M0 0 C2 1 2 1 2 1 Z " fill="#0E9466" transform="translate(620,209)"/>
<path d="M0 0 C2 1 2 1 2 1 Z " fill="#0E9466" transform="translate(471,169)"/>
<path d="M0 0 C2 1 2 1 2 1 Z " fill="#0E9466" transform="translate(550,168)"/>
<path d="M0 0 C2 1 2 1 2 1 Z " fill="#0E9466" transform="translate(473,168)"/>
<path d="" fill="#05241A" transform="translate(0,0)"/>
<path d="" fill="#D8503C" transform="translate(0,0)"/>
<path d="" fill="#D8503C" transform="translate(0,0)"/>
<path d="" fill="#D8503C" transform="translate(0,0)"/>
<path d="" fill="#D8503C" transform="translate(0,0)"/>
<path d="" fill="#D8503C" transform="translate(0,0)"/>
<path d="" fill="#D8503C" transform="translate(0,0)"/>
<path d="" fill="#D8503C" transform="translate(0,0)"/>
<path d="" fill="#D8503C" transform="translate(0,0)"/>
<path d="" fill="#D8503C" transform="translate(0,0)"/>
<path d="" fill="#D8503C" transform="translate(0,0)"/>
<path d="" fill="#D8503C" transform="translate(0,0)"/>
<path d="" fill="#D8503C" transform="translate(0,0)"/>
<path d="" fill="#D8503C" transform="translate(0,0)"/>
<path d="" fill="#D8503C" transform="translate(0,0)"/>
<path d="" fill="#D8503C" transform="translate(0,0)"/>
<path d="" fill="#D8503C" transform="translate(0,0)"/>
<path d="" fill="#D8503C" transform="translate(0,0)"/>
<path d="" fill="#D8503C" transform="translate(0,0)"/>
<path d="" fill="#D8503C" transform="translate(0,0)"/>
<path d="" fill="#D8503C" transform="translate(0,0)"/>
<path d="" fill="#D8503C" transform="translate(0,0)"/>
<path d="" fill="#D8503C" transform="translate(0,0)"/>
<path d="" fill="#D8503C" transform="translate(0,0)"/>
<path d="" fill="#D8503C" transform="translate(0,0)"/>
<path d="" fill="#D8503C" transform="translate(0,0)"/>
<path d="" fill="#D8503C" transform="translate(0,0)"/>
<path d="" fill="#D8503C" transform="translate(0,0)"/>
<path d="" fill="#D8503C" transform="translate(0,0)"/>
<path d="" fill="#D8503C" transform="translate(0,0)"/>
<path d="" fill="#D8503C" transform="translate(0,0)"/>
<path d="" fill="#D8503C" transform="translate(0,0)"/>
<path d="" fill="#D8503C" transform="translate(0,0)"/>
<path d="" fill="#D8503C" transform="translate(0,0)"/>
<path d="" fill="#D8503C" transform="translate(0,0)"/>
<path d="" fill="#D8503C" transform="translate(0,0)"/>
<path d="" fill="#D8503C" transform="translate(0,0)"/>
<path d="" fill="#D8503C" transform="translate(0,0)"/>
<path d="" fill="#D8503C" transform="translate(0,0)"/>
<path d="" fill="#D8503C" transform="translate(0,0)"/>
<path d="" fill="#D8503C" transform="translate(0,0)"/>
<path d="" fill="#D8503C" transform="translate(0,0)"/>
<path d="" fill="#D8503C" transform="translate(0,0)"/>
<path d="" fill="#D8503C" transform="translate(0,0)"/>
<path d="" fill="#D8503C" transform="translate(0,0)"/>
<path d="" fill="#D8503C" transform="translate(0,0)"/>
<path d="" fill="#D8503C" transform="translate(0,0)"/>
<path d="" fill="#D8503C" transform="translate(0,0)"/>
<path d="" fill="#D8503C" transform="translate(0,0)"/>
<path d="" fill="#D8503C" transform="translate(0,0)"/>
<path d="" fill="#D8503C" transform="translate(0,0)"/>
<path d="" fill="#D8503C" transform="translate(0,0)"/>
<path d="" fill="#D8503C" transform="translate(0,0)"/>
<path d="" fill="#D8503C" transform="translate(0,0)"/>
<path d="" fill="#D8503C" transform="translate(0,0)"/>
<path d="" fill="#D8503C" transform="translate(0,0)"/>
<path d="" fill="#D8503C" transform="translate(0,0)"/>
<path d="" fill="#D8503C" transform="translate(0,0)"/>
<path d="" fill="#D8503C" transform="translate(0,0)"/>
<path d="" fill="#D8503C" transform="translate(0,0)"/>
<path d="" fill="#D8503C" transform="translate(0,0)"/>
<path d="" fill="#D8503C" transform="translate(0,0)"/>
<path d="" fill="#D8503C" transform="translate(0,0)"/>
<path d="" fill="#D8503C" transform="translate(0,0)"/>
<path d="" fill="#D8503C" transform="translate(0,0)"/>
<path d="" fill="#D8503C" transform="translate(0,0)"/>
<path d="" fill="#D8503C" transform="translate(0,0)"/>
<path d="" fill="#D8503C" transform="translate(0,0)"/>
<path d="" fill="#D8503C" transform="translate(0,0)"/>
<path d="" fill="#D8503C" transform="translate(0,0)"/>
<path d="" fill="#D8503C" transform="translate(0,0)"/>
<path d="" fill="#D8503C" transform="translate(0,0)"/>
<path d="" fill="#D8503C" transform="translate(0,0)"/>
<path d="" fill="#D8503C" transform="translate(0,0)"/>
<path d="" fill="#D8503C" transform="translate(0,0)"/>
<path d="" fill="#D8503C" transform="translate(0,0)"/>
<path d="" fill="#D8503C" transform="translate(0,0)"/>
<path d="" fill="#D8503C" transform="translate(0,0)"/>
<path d="" fill="#D8503C" transform="translate(0,0)"/>
<path d="" fill="#D8503C" transform="translate(0,0)"/>
<path d="" fill="#D8503C" transform="translate(0,0)"/>
<path d="" fill="#D8503C" transform="translate(0,0)"/>
<path d="" fill="#D8503C" transform="translate(0,0)"/>
<path d="" fill="#D8503C" transform="translate(0,0)"/>
<path d="" fill="#D8503C" transform="translate(0,0)"/>
<path d="" fill="#D8503C" transform="translate(0,0)"/>
<path d="" fill="#D8503C" transform="translate(0,0)"/>
<path d="" fill="#D8503C" transform="translate(0,0)"/>
<path d="" fill="#D8503C" transform="translate(0,0)"/>
<path d="" fill="#0E9466" transform="translate(0,0)"/>
<path d="" fill="#0E9466" transform="translate(0,0)"/>
<path d="" fill="#0E9466" transform="translate(0,0)"/>
<path d="" fill="#0E9466" transform="translate(0,0)"/>
<path d="" fill="#0E9466" transform="translate(0,0)"/>
<path d="" fill="#0E9466" transform="translate(0,0)"/>
<path d="" fill="#0E9466" transform="translate(0,0)"/>
<path d="" fill="#0E9466" transform="translate(0,0)"/>
<path d="" fill="#0E9466" transform="translate(0,0)"/>
<path d="" fill="#0E9466" transform="translate(0,0)"/>
<path d="" fill="#0E9466" transform="translate(0,0)"/>
<path d="" fill="#0E9466" transform="translate(0,0)"/>
<path d="" fill="#0E9466" transform="translate(0,0)"/>
<path d="" fill="#0E9466" transform="translate(0,0)"/>
<path d="" fill="#0E9466" transform="translate(0,0)"/>
<path d="" fill="#0E9466" transform="translate(0,0)"/>
<path d="" fill="#0E9466" transform="translate(0,0)"/>
<path d="" fill="#0E9466" transform="translate(0,0)"/>
<path d="" fill="#0E9466" transform="translate(0,0)"/>
<path d="" fill="#0E9466" transform="translate(0,0)"/>
<path d="" fill="#0E9466" transform="translate(0,0)"/>
<path d="" fill="#0E9466" transform="translate(0,0)"/>
<path d="" fill="#0E9466" transform="translate(0,0)"/>
<path d="" fill="#0E9466" transform="translate(0,0)"/>
<path d="" fill="#0E9466" transform="translate(0,0)"/>
<path d="" fill="#0E9466" transform="translate(0,0)"/>
<path d="" fill="#0E9466" transform="translate(0,0)"/>
<path d="" fill="#0E9466" transform="translate(0,0)"/>
<path d="" fill="#0E9466" transform="translate(0,0)"/>
<path d="" fill="#0E9466" transform="translate(0,0)"/>
<path d="" fill="#0E9466" transform="translate(0,0)"/>
<path d="" fill="#0E9466" transform="translate(0,0)"/>
<path d="" fill="#0E9466" transform="translate(0,0)"/>
<path d="" fill="#0E9466" transform="translate(0,0)"/>
<path d="" fill="#0E9466" transform="translate(0,0)"/>
<path d="" fill="#0E9466" transform="translate(0,0)"/>
<path d="" fill="#0E9466" transform="translate(0,0)"/>
<path d="" fill="#0E9466" transform="translate(0,0)"/>
<path d="" fill="#0E9466" transform="translate(0,0)"/>
<path d="" fill="#0E9466" transform="translate(0,0)"/>
<path d="" fill="#0E9466" transform="translate(0,0)"/>
<path d="" fill="#0E9466" transform="translate(0,0)"/>
<path d="" fill="#0E9466" transform="translate(0,0)"/>
<path d="" fill="#0E9466" transform="translate(0,0)"/>
<path d="" fill="#0E9466" transform="translate(0,0)"/>
<path d="" fill="#0E9466" transform="translate(0,0)"/>
<path d="" fill="#0E9466" transform="translate(0,0)"/>
<path d="" fill="#0E9466" transform="translate(0,0)"/>
<path d="" fill="#0E9466" transform="translate(0,0)"/>
<path d="" fill="#0E9466" transform="translate(0,0)"/>
<path d="" fill="#0E9466" transform="translate(0,0)"/>
<path d="" fill="#0E9466" transform="translate(0,0)"/>
<path d="" fill="#0E9466" transform="translate(0,0)"/>
<path d="" fill="#0E9466" transform="translate(0,0)"/>
<path d="" fill="#0E9466" transform="translate(0,0)"/>
<path d="" fill="#0E9466" transform="translate(0,0)"/>
<path d="" fill="#0E9466" transform="translate(0,0)"/>
<path d="" fill="#0E9466" transform="translate(0,0)"/>
<path d="" fill="#0E9466" transform="translate(0,0)"/>
<path d="" fill="#0E9466" transform="translate(0,0)"/>
<path d="" fill="#0E9466" transform="translate(0,0)"/>
<path d="" fill="#0E9466" transform="translate(0,0)"/>
<path d="" fill="#0E9466" transform="translate(0,0)"/>
<path d="" fill="#0E9466" transform="translate(0,0)"/>
<path d="" fill="#0E9466" transform="translate(0,0)"/>
<path d="" fill="#0E9466" transform="translate(0,0)"/>
<path d="" fill="#0E9466" transform="translate(0,0)"/>
<path d="" fill="#0E9466" transform="translate(0,0)"/>
<path d="" fill="#0E9466" transform="translate(0,0)"/>
<path d="" fill="#0E9466" transform="translate(0,0)"/>
<path d="" fill="#0E9466" transform="translate(0,0)"/>
<path d="" fill="#0E9466" transform="translate(0,0)"/>
<path d="" fill="#0E9466" transform="translate(0,0)"/>
<path d="" fill="#0E9466" transform="translate(0,0)"/>
<path d="" fill="#0E9466" transform="translate(0,0)"/>
<path d="" fill="#0E9466" transform="translate(0,0)"/>
<path d="" fill="#0E9466" transform="translate(0,0)"/>
<path d="" fill="#0E9466" transform="translate(0,0)"/>
<path d="" fill="#0E9466" transform="translate(0,0)"/>
<path d="" fill="#0E9466" transform="translate(0,0)"/>
<path d="" fill="#0E9466" transform="translate(0,0)"/>
<path d="" fill="#0E9466" transform="translate(0,0)"/>
<path d="" fill="#0E9466" transform="translate(0,0)"/>
<path d="" fill="#0E9466" transform="translate(0,0)"/>
<path d="" fill="#0E9466" transform="translate(0,0)"/>
<path d="" fill="#0E9466" transform="translate(0,0)"/>
<path d="" fill="#0E9466" transform="translate(0,0)"/>
<path d="" fill="#0E9466" transform="translate(0,0)"/>
<path d="" fill="#0E9466" transform="translate(0,0)"/>
<path d="" fill="#0E9466" transform="translate(0,0)"/>
<path d="" fill="#0E9466" transform="translate(0,0)"/>
<path d="" fill="#0E9466" transform="translate(0,0)"/>
<path d="" fill="#0E9466" transform="translate(0,0)"/>
<path d="" fill="#0E9466" transform="translate(0,0)"/>
</g>
</svg>
